<?xml version="1.0" encoding="UTF-8"?>
<!-- The Best Svg Icon site in the world: iconSvg.co, Visit us! https://iconsvg.co -->
<svg fill="currentColor" width="800px" height="800px" version="1.1" viewBox="144 144 512 512" xmlns="http://www.w3.org/2000/svg">
 <path d="m218.94 363.19c0 55.027 49.438 99.789 110.21 99.789 10.637 0.007813 21.223-1.3945 31.488-4.168v161.61h-98.398c-4.3477 0-7.8711 3.5273-7.8711 7.875 0 4.3477 3.5234 7.8711 7.8711 7.8711h220.42c4.3477 0 7.8711-3.5234 7.8711-7.8711 0-4.3477-3.5234-7.875-7.8711-7.875h-106.27v-74.594l33.684-23.316c21.168 9.5352 45.391 9.6172 66.621 0.22656 2.5195 2.25 5.2852 4.207 8.2422 5.8438 7.1445 3.8945 15.164 5.9062 23.301 5.8477 25.949-1.4922 49.246-16.391 61.488-39.32 10.594-17.289 13.848-38.086 9.0469-57.781-3.2734-12.668-11.406-23.531-22.641-30.238 2.5117-24.129-7.0859-45.539-25.324-55.602v0.003906c-4.9922-2.7383-10.438-4.5391-16.074-5.3242 2.2461-9.4766 3.3711-19.188 3.3516-28.93 0-55.465-35.77-100.71-79.797-99.77-13.469-32.777-40.336-53.625-69.77-53.625-43.406 0-78.723 44.762-78.723 99.789 0 2.0312 0.0625 4.0938 0.17969 6.2969-42.742 14.625-71.027 51.395-71.027 93.266zm157.44 133.23c5.1953 6.7461 11.387 12.664 18.355 17.547l-18.355 12.707zm163.39-86.238c-0.67578 3.6562 1.293 7.2852 4.7227 8.707 1.0781 0.4375 2.1289 0.92969 3.1484 1.4805 7.9805 4.5742 13.73 12.223 15.902 21.16 3.6641 15.613 0.96484 32.039-7.5 45.656-15.16 26.16-43.676 38.574-63.559 27.551v0.003906c-3.1758-1.7734-6.0117-4.0898-8.3789-6.8516-1.4961-1.7227-3.6641-2.7148-5.9492-2.7148-1.3789-0.003907-2.7344 0.35156-3.9375 1.0312-14.785 8.0977-32.184 9.9922-48.363 5.2578l49.391-34.195h-0.003906c3.457-2.5156 4.2734-7.3281 1.8438-10.844-2.4336-3.5156-7.2305-4.4453-10.801-2.0977l-57.598 39.871h-0.003906c-14.672-8.2578-25.574-21.883-30.414-38.012-3.7695-12.867-2.1484-26.715 4.4922-38.363 6.7227-10.426 16.629-18.406 28.25-22.746 11.621-4.3438 24.336-4.8164 36.246-1.3477 3.668 0.86328 7.4336-0.99219 8.9805-4.4258 0.99609-2.2305 2.1016-4.4062 3.3164-6.5234 15.168-26.16 43.715-38.527 63.566-27.551 13.793 7.5703 20.293 25.211 16.648 44.953zm-239.31-127.06c3.6719-1.0352 6.0703-4.5625 5.6914-8.3594-0.39453-3.6953-0.60156-7.4102-0.62109-11.129 0-46.344 28.25-84.043 62.977-84.043 24.316 0 46.711 19.137 57.062 48.758 1.2188 3.4766 4.6797 5.6445 8.3359 5.2188 1.8086-0.22266 3.6289-0.34375 5.4492-0.35938 34.723 0 62.977 37.699 62.977 84.035v-0.003906c0.003906 9.8711-1.3477 19.695-4.0156 29.199-22.238 4.5352-41.363 18.609-52.301 38.492-0.44141 0.78906-0.86719 1.5273-1.2656 2.2969l-0.003906 0.003906c-25.215-4.7383-51.09 3.9219-68.367 22.891v-128.2c0-4.3477-3.5234-7.8711-7.8711-7.8711-4.3477 0-7.875 3.5234-7.875 7.8711v99.078l-41.668-41.668h0.003906c-3.0898-2.9844-8-2.9414-11.035 0.097656-3.0391 3.0352-3.0781 7.9453-0.097656 11.035l52.797 52.797v39.07c-10.18 3.2383-20.801 4.8906-31.488 4.9023-52.09 0-94.465-37.699-94.465-84.043 0.003906-36.738 26.438-68.918 65.781-80.074z"/>
</svg>